inDegrees=yes
name=ik_lifting_orientations
DataType=double
version=3
OpenSimVersion=4.5-2024-01-10-34fd6af
endheader
time	pelvis_tilt	pelvis_list	pelvis_rotation	pelvis_tx	pelvis_ty	pelvis_tz	hip_flexion_r	hip_adduction_r	hip_rotation_r	knee_angle_r	knee_angle_r_beta	ankle_angle_r	subtalar_angle_r	mtp_angle_r	hip_flexion_l	hip_adduction_l	hip_rotation_l	knee_angle_l	knee_angle_l_beta	ankle_angle_l	subtalar_angle_l	mtp_angle_l	lumbar_extension	lumbar_bending	lumbar_rotation	arm_flex_r	arm_add_r	arm_rot_r	elbow_flex_r	pro_sup_r	wrist_flex_r	wrist_dev_r	arm_flex_l	arm_add_l	arm_rot_l	elbow_flex_l	pro_sup_l	wrist_flex_l	wrist_dev_l
2.04	-1.518143475229124	-2.924781376166079	-68.08813038409035	0	0.9399999998679526	0	44.9949489089975	-10.26509439199056	0	59.99780616271674	1.047159261512752	-5.083085609907611	0	0	44.9949489089975	-10.26509439199056	0	59.99780616271674	1.047159261512752	-5.083085609907611	0	0	-6.307946356028813	5.991597233990866	-40.68905534533631	93.54484583815714	30.36286228874301	7.479305592760912	49.95420669045149	1.581338836210695	0	0	0	-11.74144603756497	0	88.44991247200639	1.581338836210695	0	0
2.05	-1.733607976121191	-3.171886045855068	-68.71668707911373	0	0.9399999998679526	0	44.99495199424595	-10.26453055746921	0	59.99780728452146	1.047159281091938	-5.08285528264217	0	0	44.99495199424595	-10.26453055746921	0	59.99780728452146	1.047159281091938	-5.08285528264217	0	0	-6.918281552833783	6.549303182920284	-41.18377922702558	94.66207665063676	32.00785232133993	6.753513467417487	49.63126237585569	1.580665969757612	0	0	0	-11.74246770023693	0	88.45057195970294	1.580665969757612	0	0
2.06	-1.982109242703942	-3.462576653838316	-69.7754179122938	0	0.9399999998679526	0	44.99495436764303	-10.26409770145449	0	59.99780814810732	1.047159296164354	-5.082678583600011	0	0	44.99495436764303	-10.26409770145449	0	59.99780814810732	1.047159296164354	-5.082678583600011	0	0	-7.302035125417852	6.872579900685054	-40.96934920989896	95.36308963618622	33.1359467695578	6.413258513117245	49.31606274355257	1.580148150090201	0	0	0	-11.74325417415293	0	88.45107948345681	1.580148150090201	0	0
2.07	-2.117679203744578	-3.655255257336683	-71.53730701350904	0	0.9399999998679526	0	44.99495679921146	-10.26365431038194	0	59.99780903222576	1.047159311595132	-5.08249763992856	0	0	44.99495679921146	-10.26365431038194	0	59.99780903222576	1.047159311595132	-5.08249763992856	0	0	-7.291889646221748	6.718415867131832	-40.80339732935897	95.54139339257222	35.05314088887393	6.005567565633694	48.95554556825209	1.579617729424621	0	0	0	-11.74405964094077	0	88.45159935765693	1.579617729424621	0	0
2.08	-2.24944457083634	-3.839320921335722	-73.47757992975173	0	0.9399999998679526	0	44.99496003599723	-10.26306459658425	0	59.9978102088132	1.047159332130457	-5.082257098155334	0	0	44.99496003599723	-10.26306459658425	0	59.9978102088132	1.047159332130457	-5.082257098155334	0	0	-7.561699591106199	6.64170414941537	-40.66267447998231	96.27823770495115	37.45519050624941	5.225307068782963	48.37026536048228	1.578911644723562	0	0	0	-11.74513183899054	0	88.4522914031306	1.578911644723562	0	0
2.09	-2.405151178966309	-4.060501015677232	-75.30454433079927	0	0.9399999998679526	0	44.99496520806744	-10.26212739257011	0	59.99781209044495	1.047159364971126	-5.081875632677854	0	0	44.99496520806744	-10.26212739257011	0	59.99781209044495	1.047159364971126	-5.081875632677854	0	0	-8.140594086543265	6.765414706271179	-39.41388254243865	97.13090719114589	38.34831474980587	4.74991876345479	47.92574337696918	1.57778266245699	0	0	0	-11.74684679919356	0	88.45339793764937	1.57778266245699	0	0
2.1	-2.527574600647571	-4.186359959319595	-77.80002367912829	0	0.9399999998679526	0	44.99496982899662	-10.26129535986665	0	59.99781377533289	1.047159394377968	-5.081537692515152	0	0	44.99496982899662	-10.26129535986665	0	59.99781377533289	1.047159394377968	-5.081537692515152	0	0	-8.295660412727583	6.493193067641908	-36.99204037662881	97.40434604222241	38.60017914820824	4.467460924553762	47.6535945643592	1.576772818137449	0	0	0	-11.74838206240543	0	88.45438770312748	1.576772818137449	0	0
2.11	-2.512925505139809	-4.24212859007722	-81.17006588383204	0	0.9399999998679526	0	44.99497640315518	-10.26010969076921	0	59.99781616680923	1.047159436117104	-5.081056134707186	0	0	44.99497640315518	-10.26010969076921	0	59.99781616680923	1.047159436117104	-5.081056134707186	0	0	-8.524496375381636	5.878960923242695	-33.72591423365351	97.94221962770833	38.86925566090731	3.880913361291594	47.11661057310214	1.575337156523437	0	0	0	-11.75056331846785	0	88.45579481928483	1.575337156523437	0	0
2.12	-2.490204924415681	-4.253574408580181	-84.1088055499151	0	0.9399999998679526	0	44.99498052919598	-10.25937209871276	0	59.99781767410997	1.047159462424465	-5.080757341571851	0	0	44.99498052919598	-10.25937209871276	0	59.99781767410997	1.047159462424465	-5.080757341571851	0	0	-8.57312181306883	5.377641344710421	-30.95269991084303	98.18409724064942	39.29251149110645	3.683735675697303	46.76741028768848	1.574434368108243	0	0	0	-11.75193701548246	0	88.45667965753199	1.574434368108243	0	0
2.13	-2.427775650404579	-4.220086904559502	-86.09508014561385	0	0.9399999998679526	0	44.99498507195815	-10.25857206130281	0	59.99781934740165	1.047159491628914	-5.080434547041253	0	0	44.99498507195815	-10.25857206130281	0	59.99781934740165	1.047159491628914	-5.080434547041253	0	0	-8.736613815469038	5.07701455300284	-28.72726529404166	98.82785420550134	39.66274040074809	3.447941720447941	46.17538478593198	1.573436887639369	0	0	0	-11.75345901223191	0	88.45765730525754	1.573436887639369	0	0
2.14	-2.355294891489235	-4.241231234258181	-89.14882439669752	0	0.9399999998679526	0	44.99499150579085	-10.2574199861296	0	59.99782168917884	1.047159532500637	-5.079968055046455	0	0	44.99499150579085	-10.2574199861296	0	59.99782168917884	1.047159532500637	-5.079968055046455	0	0	-8.992966406711639	4.480581326180086	-25.8415819211207	99.69433276162377	39.96036275831725	2.858961172916854	45.36635015481799	1.572030633666419	0	0	0	-11.75559672870306	0	88.45903559857969	1.572030633666419	0	0
2.15	-2.175571019309875	-4.12939720808478	-92.63430480915396	0	0.9399999998679526	0	44.99499642187877	-10.25654521556937	0	59.99782348269783	1.047159563803448	-5.079614583649903	0	0	44.99499642187877	-10.25654521556937	0	59.99782348269783	1.047159563803448	-5.079614583649903	0	0	-9.000785535457123	3.770021175401421	-22.46383648311398	100.225317799605	40.15899781551664	2.557104630840569	44.82482225460497	1.570954829123924	0	0	0	-11.75723355657067	0	88.46009001289573	1.570954829123924	0	0
2.16	-2.079810923067753	-4.053108610599756	-94.88059942366078	0	0.9399999998679526	0	44.99500142914794	-10.25565788504852	0	59.99782531314496	1.047159595750777	-5.079256471910425	0	0	44.99500142914794	-10.25565788504852	0	59.99782531314496	1.047159595750777	-5.079256471910425	0	0	-9.017398325615583	3.304934335866473	-20.32407969876133	100.8734269049987	40.61978816780755	2.067554729974621	44.12723257473252	1.569858019772474	0	0	0	-11.75890362791605	0	88.46116501444514	1.569858019772474	0	0
2.17	-2.101579902079384	-4.043198870767275	-96.45456112362449	0	0.9399999998679526	0	44.99500651953691	-10.25475718428655	0	59.99782717332403	1.047159628217027	-5.078893255159406	0	0	44.99500651953691	-10.25475718428655	0	59.99782717332403	1.047159628217027	-5.078893255159406	0	0	-9.074770136673934	3.091198599221722	-18.88841700555758	101.3935053098192	41.05475972608261	1.635691473582585	43.62694224123327	1.568742922115896	0	0	0	-11.76060155168367	0	88.46225794068513	1.568742922115896	0	0
2.18	-1.974072186894159	-3.915249610446066	-97.94721279037802	0	0.9399999998679526	0	44.99500857709619	-10.25439290185575	0	59.99782792549165	1.047159641344828	-5.078746306300234	0	0	44.99500857709619	-10.25439290185575	0	59.99782792549165	1.047159641344828	-5.078746306300234	0	0	-8.983586714927558	2.761223539781109	-17.4889226801513	101.5514179082671	41.05067162804544	1.510924401199758	43.33518903481034	1.568292125207755	0	0	0	-11.76128812000667	0	88.46269977443433	1.568292125207755	0	0
2.19	-1.898849994994632	-3.788082470117135	-98.87682337399239	0	0.9399999998679526	0	44.99500993434915	-10.25415270259944	0	59.997828421501	1.047159650001825	-5.078649438950878	0	0	44.99500993434915	-10.25415270259944	0	59.997828421501	1.047159650001825	-5.078649438950878	0	0	-8.64312804048374	2.558978078531808	-16.70966399131149	101.6823972552036	41.03491330491237	1.408444286631517	43.01749130928955	1.567994773147731	0	0	0	-11.7617409614373	0	88.46299121426685	1.567994773147731	0	0
2.2	-1.869349812076622	-3.701350027499611	-98.6151697930662	0	0.9399999998679526	0	44.99501102743219	-10.25396376516913	0	59.99782882837992	1.047159657103201	-5.078573597362648	0	0	44.99501102743219	-10.25396376516913	0	59.99782882837992	1.047159657103201	-5.078573597362648	0	0	-8.611071639526788	2.611716062955397	-16.67271906418047	102.0116337061355	40.67948281825891	1.356154179317085	42.65744238308203	1.567753572975872	0	0	0	-11.76211051802756	0	88.46322761876802	1.567753572975872	0	0
2.21	-1.826729713611518	-3.565494138292574	-97.75194671506389	0	0.9399999998679526	0	44.99501291303503	-10.25363193690487	0	59.99782952005071	1.047159669175134	-5.078439956575878	0	0	44.99501291303503	-10.25363193690487	0	59.99782952005071	1.047159669175134	-5.078439956575878	0	0	-8.555144651454281	2.683732320511774	-17.25270022058015	102.4121538240937	40.32873450932952	1.233305759339404	42.27710043893898	1.56733982786266	0	0	0	-11.76274142635878	0	88.46363313745563	1.56733982786266	0	0
2.22	-1.714726062927346	-3.377446848218545	-97.00371722582707	0	0.9399999998679526	0	44.99501526090442	-10.25321790424234	0	59.9978303792068	1.047159684170237	-5.078273184611092	0	0	44.99501526090442	-10.25321790424234	0	59.9978303792068	1.047159684170237	-5.078273184611092	0	0	-8.388905249383701	2.701569898634055	-17.81562259047919	102.8982392722308	40.07972238491337	1.162981910309821	41.86734145046884	1.566825081793873	0	0	0	-11.763525766722	0	88.46413764889151	1.566825081793873	0	0
2.23	-1.600849872879607	-3.134434008634841	-96.15746736485893	0	0.9399999998679526	0	44.99501664980723	-10.25297671544041	0	59.99783089341458	1.047159693144855	-5.078176337888717	0	0	44.99501664980723	-10.25297671544041	0	59.99783089341458	1.047159693144855	-5.078176337888717	0	0	-8.102072307423887	2.74014223079976	-18.49109126150686	103.2172935635682	39.82685931496942	1.170273957232934	41.34747668216785	1.566519177540936	0	0	0	-11.76399369129257	0	88.46443747096359	1.566519177540936	0	0
2.24	-1.524066803226721	-2.922845700031741	-95.07207073458071	0	0.9399999998679526	0	44.99501837726185	-10.25267378557555	0	59.99783152756235	1.047159704212822	-5.07805449876983	0	0	44.99501837726185	-10.25267378557555	0	59.99783152756235	1.047159704212822	-5.07805449876983	0	0	-7.880644912973041	2.814848972244967	-19.42781150211864	103.5265766727215	39.6430309424935	1.220467379973257	40.69211416745108	1.566139925036045	0	0	0	-11.76457222243555	0	88.46480918286692	1.566139925036045	0	0
2.25	-1.60295867950412	-2.893389682553158	-93.2336152059393	0	0.9399999998679526	0	44.99502332164118	-10.2518001495666	0	59.99783332863871	1.047159735647534	-5.077702799446649	0	0	44.99502332164118	-10.2518001495666	0	59.99783332863871	1.047159735647534	-5.077702799446649	0	0	-7.962007472081299	3.157381075385852	-24.6061121640778	104.8555973351782	43.03409218732035	-0.02123750240456932	39.94616803005594	1.565057457034887	0	0	0	-11.76621940783009	0	88.4658701282133	1.565057457034887	0	0
2.26	-1.681117449093936	-2.816679500691638	-91.37473981103284	0	0.9399999998679526	0	44.99502619467992	-10.25129709114872	0	59.99783437838339	1.047159753969036	-5.077500900942327	0	0	44.99502619467992	-10.25129709114872	0	59.99783437838339	1.047159753969036	-5.077500900942327	0	0	-7.846697189019955	3.479653471508136	-25.21686714296187	104.9878034168818	41.92842291035438	0.258318299856187	39.28402862960725	1.564427495866869	0	0	0	-11.76717902489726	0	88.4664875639463	1.564427495866869	0	0
2.27	-1.758550689436136	-2.734328974871367	-90.24974521265888	0	0.9399999998679526	0	44.99502761329396	-10.25104874587933	0	59.9978348980946	1.047159763039707	-5.077401159561889	0	0	44.99502761329396	-10.25104874587933	0	59.9978348980946	1.047159763039707	-5.077401159561889	0	0	-7.803493762535906	3.761020224404206	-25.58869995749818	105.1719552017942	41.22523047477996	0.5041055803254955	38.45491545264488	1.564116161860671	0	0	0	-11.7676537328721	0	88.46679270775748	1.564116161860671	0	0
